<?xml version="1.0" encoding="utf-8"?>
<!-- Generator: Adobe Illustrator 21.1.0, SVG Export Plug-In . SVG Version: 6.00 Build 0)  -->
<svg version="1.1" id="Layer_1" xmlns="http://www.w3.org/2000/svg" xmlns:xlink="http://www.w3.org/1999/xlink" x="0px" y="0px"
	 viewBox="0 0 720 720" style="enable-background:new 0 0 720 720;" xml:space="preserve">
<style type="text/css">
	.st0{fill:#DDDDDD;}
	.st1{fill:#0579B9;}
</style>
<path id="XMLID_64_" class="st0" d="M139.7,285c0,0.3-0.1,0.7-0.3,0.9c-0.2,0.3-0.6,0.5-1.1,0.7c-0.5,0.2-1.2,0.3-2.1,0.4
	s-2,0.2-3.3,0.2c-1.3,0-2.4-0.1-3.3-0.2c-0.9-0.1-1.6-0.2-2.1-0.4c-0.5-0.2-0.9-0.4-1.1-0.7c-0.2-0.3-0.3-0.6-0.3-0.9v-63.3
	c0-0.3,0.1-0.7,0.3-0.9c0.2-0.3,0.6-0.5,1.1-0.7c0.5-0.2,1.2-0.3,2.1-0.4c0.9-0.1,2-0.2,3.3-0.2c1.3,0,2.5,0.1,3.3,0.2
	c0.9,0.1,1.6,0.2,2.1,0.4c0.5,0.2,0.9,0.4,1.1,0.7c0.2,0.3,0.3,0.6,0.3,0.9V285z"/>
<path id="XMLID_101_" class="st0" d="M251.7,281.8c0.4,1.2,0.7,2.2,0.8,3c0.1,0.7,0,1.3-0.4,1.6c-0.4,0.4-1.1,0.6-2,0.7
	s-2.3,0.1-4,0.1c-1.8,0-3.1,0-4.1-0.1c-1-0.1-1.7-0.2-2.3-0.3c-0.5-0.2-0.9-0.4-1.1-0.6c-0.2-0.3-0.4-0.6-0.5-1.1l-4.5-13.5h-25.2
	l-4.3,13.1c-0.1,0.5-0.3,0.9-0.5,1.2c-0.2,0.3-0.6,0.6-1.1,0.8c-0.5,0.2-1.2,0.3-2.1,0.4c-0.9,0.1-2.1,0.1-3.6,0.1
	c-1.6,0-2.8-0.1-3.7-0.2c-0.9-0.1-1.5-0.4-1.9-0.8c-0.3-0.4-0.5-1-0.4-1.7c0.1-0.7,0.4-1.7,0.8-2.9l20.7-59.5
	c0.2-0.6,0.4-1.1,0.7-1.4s0.7-0.6,1.3-0.8c0.6-0.2,1.4-0.3,2.5-0.4c1.1-0.1,2.5-0.1,4.3-0.1c2,0,3.7,0,4.9,0.1
	c1.2,0.1,2.2,0.2,2.8,0.4c0.7,0.2,1.2,0.5,1.4,0.9c0.3,0.4,0.5,0.9,0.8,1.6L251.7,281.8z M220.9,232.6L220.9,232.6l-9.5,28.5h19
	L220.9,232.6z"/>
<path id="XMLID_104_" class="st0" d="M343.3,281.5c0,1,0,1.8-0.1,2.5c-0.1,0.7-0.2,1.2-0.4,1.6c-0.2,0.4-0.4,0.7-0.6,0.9
	c-0.3,0.2-0.5,0.3-0.9,0.3h-33.7c-1.1,0-2.1-0.3-2.9-1s-1.2-1.8-1.2-3.3v-58.5c0-1.5,0.4-2.6,1.2-3.3c0.8-0.7,1.7-1,2.9-1h33.5
	c0.3,0,0.6,0.1,0.8,0.3c0.2,0.2,0.4,0.5,0.6,0.9c0.2,0.4,0.3,1,0.4,1.7c0.1,0.7,0.1,1.5,0.1,2.6c0,1,0,1.8-0.1,2.5
	c-0.1,0.7-0.2,1.2-0.4,1.6c-0.2,0.4-0.4,0.7-0.6,0.9c-0.2,0.2-0.5,0.3-0.8,0.3h-23.9v16.4h20.3c0.3,0,0.6,0.1,0.9,0.3
	c0.3,0.2,0.5,0.5,0.6,0.9c0.2,0.4,0.3,0.9,0.4,1.6c0.1,0.7,0.1,1.5,0.1,2.5c0,1,0,1.8-0.1,2.5c-0.1,0.7-0.2,1.2-0.4,1.6
	c-0.2,0.4-0.4,0.7-0.6,0.9s-0.5,0.3-0.9,0.3h-20.3v18.9h24.1c0.3,0,0.6,0.1,0.9,0.3c0.3,0.2,0.5,0.5,0.6,0.9s0.3,1,0.4,1.6
	S343.3,280.5,343.3,281.5z"/>
<path id="XMLID_106_" class="st0" d="M436.5,266.8c0,3.5-0.7,6.6-2,9.3c-1.3,2.7-3.1,4.9-5.3,6.7c-2.2,1.8-4.9,3.1-7.9,4
	c-3,0.9-6.2,1.3-9.6,1.3c-2.3,0-4.5-0.2-6.5-0.6c-2-0.4-3.7-0.8-5.3-1.4c-1.5-0.5-2.8-1.1-3.8-1.7c-1-0.6-1.8-1.1-2.2-1.6
	c-0.4-0.4-0.8-1.1-1-1.9c-0.2-0.8-0.3-2.1-0.3-3.7c0-1.1,0-2,0.1-2.7c0.1-0.7,0.2-1.3,0.3-1.8c0.2-0.4,0.4-0.8,0.6-1
	c0.3-0.2,0.6-0.3,0.9-0.3c0.5,0,1.2,0.3,2,0.9c0.9,0.6,2,1.2,3.4,1.9c1.4,0.7,3,1.3,5,1.9c1.9,0.6,4.1,0.9,6.7,0.9
	c1.7,0,3.1-0.2,4.5-0.6c1.3-0.4,2.4-1,3.3-1.7c0.9-0.7,1.6-1.6,2.1-2.7c0.5-1.1,0.7-2.3,0.7-3.6c0-1.5-0.4-2.8-1.2-3.9
	c-0.8-1.1-1.9-2.1-3.2-2.9c-1.3-0.8-2.8-1.6-4.5-2.4c-1.7-0.7-3.4-1.5-5.2-2.4c-1.8-0.8-3.5-1.8-5.2-2.8c-1.7-1.1-3.2-2.3-4.5-3.8
	c-1.3-1.5-2.4-3.2-3.2-5.2c-0.8-2-1.2-4.4-1.2-7.2c0-3.2,0.6-6,1.8-8.5c1.2-2.4,2.8-4.5,4.8-6.1c2-1.6,4.4-2.8,7.2-3.6
	c2.7-0.8,5.7-1.2,8.7-1.2c1.6,0,3.2,0.1,4.8,0.4c1.6,0.2,3.1,0.6,4.5,1c1.4,0.4,2.6,0.9,3.7,1.4c1.1,0.5,1.8,0.9,2.1,1.3
	c0.3,0.3,0.6,0.6,0.7,0.9c0.1,0.2,0.2,0.6,0.3,1c0.1,0.4,0.1,0.9,0.2,1.5c0,0.6,0.1,1.4,0.1,2.3c0,1,0,1.8-0.1,2.5
	c-0.1,0.7-0.1,1.3-0.3,1.7c-0.1,0.4-0.3,0.8-0.5,1c-0.2,0.2-0.5,0.3-0.9,0.3c-0.4,0-1-0.2-1.8-0.7c-0.8-0.5-1.8-1-3.1-1.6
	c-1.2-0.6-2.6-1.1-4.2-1.6c-1.6-0.5-3.3-0.7-5.2-0.7c-1.5,0-2.8,0.2-3.9,0.5c-1.1,0.4-2,0.9-2.8,1.5c-0.7,0.6-1.3,1.4-1.7,2.3
	c-0.4,0.9-0.5,1.8-0.5,2.8c0,1.5,0.4,2.8,1.2,3.9c0.8,1.1,1.9,2.1,3.3,2.9c1.4,0.8,2.9,1.6,4.6,2.4c1.7,0.7,3.5,1.5,5.3,2.4
	c1.8,0.8,3.6,1.8,5.3,2.8c1.7,1.1,3.3,2.3,4.6,3.8c1.3,1.5,2.4,3.2,3.3,5.2C436.1,261.7,436.5,264.1,436.5,266.8z"/>
<path id="XMLID_108_" class="st0" d="M532.9,225.4c0,1,0,1.9-0.1,2.6c-0.1,0.7-0.2,1.3-0.4,1.7c-0.2,0.4-0.4,0.8-0.6,1
	c-0.3,0.2-0.5,0.3-0.9,0.3h-16.8V285c0,0.3-0.1,0.7-0.3,0.9c-0.2,0.3-0.6,0.5-1.1,0.7c-0.5,0.2-1.2,0.3-2.1,0.4s-2,0.2-3.3,0.2
	c-1.3,0-2.4-0.1-3.3-0.2c-0.9-0.1-1.6-0.2-2.1-0.4s-0.9-0.4-1.1-0.7c-0.2-0.3-0.3-0.6-0.3-0.9V231h-16.8c-0.3,0-0.6-0.1-0.9-0.3
	c-0.2-0.2-0.4-0.5-0.6-1s-0.3-1-0.4-1.7s-0.1-1.6-0.1-2.6c0-1,0-1.9,0.1-2.6s0.2-1.3,0.4-1.7s0.4-0.7,0.6-0.9
	c0.2-0.2,0.5-0.3,0.9-0.3h47.3c0.3,0,0.6,0.1,0.9,0.3c0.3,0.2,0.5,0.5,0.6,0.9c0.2,0.4,0.3,1,0.4,1.7
	C532.9,223.5,532.9,224.4,532.9,225.4z"/>
<path id="XMLID_110_" class="st0" d="M623.1,281.5c0,1,0,1.8-0.1,2.5c-0.1,0.7-0.2,1.2-0.4,1.6c-0.2,0.4-0.4,0.7-0.6,0.9
	s-0.5,0.3-0.9,0.3h-33.7c-1.1,0-2.1-0.3-2.9-1s-1.2-1.8-1.2-3.3v-58.5c0-1.5,0.4-2.6,1.2-3.3c0.8-0.7,1.7-1,2.9-1h33.5
	c0.3,0,0.6,0.1,0.8,0.3c0.2,0.2,0.4,0.5,0.6,0.9s0.3,1,0.4,1.7c0.1,0.7,0.1,1.5,0.1,2.6c0,1,0,1.8-0.1,2.5c-0.1,0.7-0.2,1.2-0.4,1.6
	c-0.2,0.4-0.4,0.7-0.6,0.9c-0.2,0.2-0.5,0.3-0.8,0.3h-23.9v16.4h20.3c0.3,0,0.6,0.1,0.9,0.3c0.3,0.2,0.5,0.5,0.6,0.9
	c0.2,0.4,0.3,0.9,0.4,1.6c0.1,0.7,0.1,1.5,0.1,2.5c0,1,0,1.8-0.1,2.5c-0.1,0.7-0.2,1.2-0.4,1.6c-0.2,0.4-0.4,0.7-0.6,0.9
	c-0.3,0.2-0.5,0.3-0.9,0.3h-20.3v18.9h24.1c0.3,0,0.6,0.1,0.9,0.3s0.5,0.5,0.6,0.9c0.2,0.4,0.3,1,0.4,1.6
	C623,279.7,623.1,280.5,623.1,281.5z"/>
<rect id="XMLID_85_" x="263.4" y="315.6" class="st0" width="41.6" height="104"/>
<polygon id="XMLID_78_" class="st0" points="530.2,419.6 634.3,315.6 575.4,315.6 471.4,419.6 575.4,523.6 634.3,523.6 "/>
<path id="XMLID_99_" class="st1" d="M367.4,315.6c-57.4,0-104,46.6-104,104c0,57.4,46.6,104,104,104s104-46.6,104-104
	C471.4,362.1,424.8,315.6,367.4,315.6z M367.4,482c-34.4,0-62.4-28-62.4-62.4s28-62.4,62.4-62.4s62.4,28,62.4,62.4
	S401.8,482,367.4,482z"/>
<path id="XMLID_98_" class="st1" d="M263.4,419.6v13c0,27.2-22.2,49.4-49.4,49.4s-49.4-22.2-49.4-49.4v-117H123v117
	c0,50.2,40.8,91,91,91s91-40.8,91-91v-13H263.4z"/>
<rect id="XMLID_91_" x="471.4" y="315.6" class="st1" width="41.6" height="208"/>
</svg>
