<?xml version="1.0" encoding="utf-8"?>
<!-- Generator: Adobe Illustrator 21.1.0, SVG Export Plug-In . SVG Version: 6.00 Build 0)  -->
<svg version="1.1" id="Layer_1" xmlns="http://www.w3.org/2000/svg" xmlns:xlink="http://www.w3.org/1999/xlink" x="0px" y="0px"
	 viewBox="0 0 400 400" style="enable-background:new 0 0 400 400;" xml:space="preserve">
<style type="text/css">
	.st0{fill:#0579B9;}
	.st1{fill:#DDDDDD;}
	.st2{fill:#454546;}
</style>
<circle class="st0" cx="200" cy="200" r="150"/>
<circle class="st1" cx="200" cy="200" r="132.5"/>
<g id="XMLID_2_">
	<g id="XMLID_3_">
		<path id="XMLID_64_" class="st2" d="M123.2,172.3c0,0.1,0,0.2-0.1,0.3c-0.1,0.1-0.2,0.2-0.4,0.2c-0.2,0.1-0.4,0.1-0.7,0.1
			s-0.6,0-1.1,0c-0.4,0-0.8,0-1.1,0c-0.3,0-0.5-0.1-0.7-0.1c-0.2-0.1-0.3-0.1-0.4-0.2c-0.1-0.1-0.1-0.2-0.1-0.3V152
			c0-0.1,0-0.2,0.1-0.3c0.1-0.1,0.2-0.2,0.4-0.2c0.2-0.1,0.4-0.1,0.7-0.1s0.6,0,1,0c0.4,0,0.8,0,1.1,0s0.5,0.1,0.7,0.1
			c0.2,0.1,0.3,0.1,0.4,0.2c0.1,0.1,0.1,0.2,0.1,0.3V172.3z"/>
		<path id="XMLID_101_" class="st2" d="M159.2,171.3c0.1,0.4,0.2,0.7,0.3,0.9c0,0.2,0,0.4-0.1,0.5c-0.1,0.1-0.3,0.2-0.6,0.2
			c-0.3,0-0.7,0-1.3,0c-0.6,0-1,0-1.3,0c-0.3,0-0.6,0-0.7-0.1c-0.2,0-0.3-0.1-0.3-0.2c-0.1-0.1-0.1-0.2-0.2-0.3l-1.4-4.3h-8.1
			l-1.4,4.2c0,0.2-0.1,0.3-0.2,0.4c-0.1,0.1-0.2,0.2-0.3,0.3c-0.2,0.1-0.4,0.1-0.7,0.1c-0.3,0-0.7,0-1.2,0c-0.5,0-0.9,0-1.2,0
			s-0.5-0.1-0.6-0.2c-0.1-0.1-0.2-0.3-0.1-0.5c0-0.2,0.1-0.5,0.2-0.9l6.6-19.1c0.1-0.2,0.1-0.3,0.2-0.5c0.1-0.1,0.2-0.2,0.4-0.3
			c0.2-0.1,0.5-0.1,0.8-0.1c0.3,0,0.8,0,1.4,0c0.7,0,1.2,0,1.6,0c0.4,0,0.7,0.1,0.9,0.1c0.2,0.1,0.4,0.2,0.5,0.3
			c0.1,0.1,0.2,0.3,0.2,0.5L159.2,171.3z M149.3,155.5L149.3,155.5l-3.1,9.2h6.1L149.3,155.5z"/>
		<path id="XMLID_104_" class="st2" d="M188.7,171.2c0,0.3,0,0.6,0,0.8c0,0.2-0.1,0.4-0.1,0.5c-0.1,0.1-0.1,0.2-0.2,0.3
			c-0.1,0.1-0.2,0.1-0.3,0.1h-10.8c-0.4,0-0.7-0.1-0.9-0.3s-0.4-0.6-0.4-1.1v-18.8c0-0.5,0.1-0.8,0.4-1.1c0.2-0.2,0.6-0.3,0.9-0.3
			h10.8c0.1,0,0.2,0,0.3,0.1c0.1,0.1,0.1,0.2,0.2,0.3c0.1,0.1,0.1,0.3,0.1,0.5c0,0.2,0,0.5,0,0.8c0,0.3,0,0.6,0,0.8
			c0,0.2-0.1,0.4-0.1,0.5c-0.1,0.1-0.1,0.2-0.2,0.3c-0.1,0.1-0.2,0.1-0.3,0.1h-7.7v5.3h6.5c0.1,0,0.2,0,0.3,0.1
			c0.1,0.1,0.2,0.2,0.2,0.3c0.1,0.1,0.1,0.3,0.1,0.5c0,0.2,0,0.5,0,0.8c0,0.3,0,0.6,0,0.8c0,0.2-0.1,0.4-0.1,0.5
			c-0.1,0.1-0.1,0.2-0.2,0.3c-0.1,0.1-0.2,0.1-0.3,0.1h-6.5v6.1h7.8c0.1,0,0.2,0,0.3,0.1c0.1,0.1,0.2,0.2,0.2,0.3
			c0.1,0.1,0.1,0.3,0.1,0.5C188.6,170.6,188.7,170.9,188.7,171.2z"/>
		<path id="XMLID_106_" class="st2" d="M218.6,166.5c0,1.1-0.2,2.1-0.6,3c-0.4,0.9-1,1.6-1.7,2.1c-0.7,0.6-1.6,1-2.5,1.3
			c-1,0.3-2,0.4-3.1,0.4c-0.7,0-1.4-0.1-2.1-0.2c-0.6-0.1-1.2-0.3-1.7-0.4c-0.5-0.2-0.9-0.4-1.2-0.5s-0.6-0.4-0.7-0.5
			c-0.1-0.1-0.2-0.4-0.3-0.6c-0.1-0.3-0.1-0.7-0.1-1.2c0-0.3,0-0.6,0-0.9c0-0.2,0.1-0.4,0.1-0.6c0.1-0.1,0.1-0.2,0.2-0.3
			c0.1-0.1,0.2-0.1,0.3-0.1c0.2,0,0.4,0.1,0.7,0.3c0.3,0.2,0.6,0.4,1.1,0.6c0.4,0.2,1,0.4,1.6,0.6c0.6,0.2,1.3,0.3,2.1,0.3
			c0.5,0,1-0.1,1.4-0.2c0.4-0.1,0.8-0.3,1.1-0.5c0.3-0.2,0.5-0.5,0.7-0.9c0.2-0.3,0.2-0.7,0.2-1.1c0-0.5-0.1-0.9-0.4-1.3
			c-0.3-0.3-0.6-0.7-1-0.9c-0.4-0.3-0.9-0.5-1.5-0.8c-0.5-0.2-1.1-0.5-1.7-0.8c-0.6-0.3-1.1-0.6-1.7-0.9c-0.5-0.3-1-0.7-1.5-1.2
			c-0.4-0.5-0.8-1-1-1.7c-0.3-0.6-0.4-1.4-0.4-2.3c0-1,0.2-1.9,0.6-2.7c0.4-0.8,0.9-1.4,1.5-1.9s1.4-0.9,2.3-1.2
			c0.9-0.3,1.8-0.4,2.8-0.4c0.5,0,1,0,1.5,0.1c0.5,0.1,1,0.2,1.4,0.3c0.4,0.1,0.8,0.3,1.2,0.4c0.3,0.2,0.6,0.3,0.7,0.4
			s0.2,0.2,0.2,0.3c0,0.1,0.1,0.2,0.1,0.3c0,0.1,0,0.3,0.1,0.5c0,0.2,0,0.4,0,0.7c0,0.3,0,0.6,0,0.8c0,0.2,0,0.4-0.1,0.5
			c0,0.1-0.1,0.2-0.2,0.3c-0.1,0.1-0.2,0.1-0.3,0.1c-0.1,0-0.3-0.1-0.6-0.2c-0.3-0.2-0.6-0.3-1-0.5c-0.4-0.2-0.8-0.3-1.3-0.5
			c-0.5-0.2-1.1-0.2-1.7-0.2c-0.5,0-0.9,0.1-1.2,0.2c-0.4,0.1-0.7,0.3-0.9,0.5c-0.2,0.2-0.4,0.5-0.5,0.7c-0.1,0.3-0.2,0.6-0.2,0.9
			c0,0.5,0.1,0.9,0.4,1.2c0.3,0.3,0.6,0.7,1,0.9c0.4,0.3,0.9,0.5,1.5,0.8c0.6,0.2,1.1,0.5,1.7,0.8c0.6,0.3,1.1,0.6,1.7,0.9
			c0.6,0.3,1,0.7,1.5,1.2c0.4,0.5,0.8,1,1,1.7C218.5,164.9,218.6,165.6,218.6,166.5z"/>
		<path id="XMLID_108_" class="st2" d="M249.6,153.2c0,0.3,0,0.6,0,0.8c0,0.2-0.1,0.4-0.1,0.5c-0.1,0.1-0.1,0.2-0.2,0.3
			c-0.1,0.1-0.2,0.1-0.3,0.1h-5.4v17.4c0,0.1,0,0.2-0.1,0.3c-0.1,0.1-0.2,0.2-0.4,0.2c-0.2,0.1-0.4,0.1-0.7,0.1s-0.6,0-1.1,0
			c-0.4,0-0.8,0-1.1,0s-0.5-0.1-0.7-0.1c-0.2-0.1-0.3-0.1-0.4-0.2c-0.1-0.1-0.1-0.2-0.1-0.3V155h-5.4c-0.1,0-0.2,0-0.3-0.1
			c-0.1-0.1-0.1-0.2-0.2-0.3c-0.1-0.1-0.1-0.3-0.1-0.5c0-0.2,0-0.5,0-0.8c0-0.3,0-0.6,0-0.8c0-0.2,0.1-0.4,0.1-0.6
			c0.1-0.1,0.1-0.2,0.2-0.3c0.1-0.1,0.2-0.1,0.3-0.1h15.2c0.1,0,0.2,0,0.3,0.1c0.1,0.1,0.2,0.2,0.2,0.3c0.1,0.1,0.1,0.3,0.1,0.6
			C249.6,152.6,249.6,152.9,249.6,153.2z"/>
		<path id="XMLID_110_" class="st2" d="M278.5,171.2c0,0.3,0,0.6,0,0.8c0,0.2-0.1,0.4-0.1,0.5c-0.1,0.1-0.1,0.2-0.2,0.3
			c-0.1,0.1-0.2,0.1-0.3,0.1h-10.8c-0.4,0-0.7-0.1-0.9-0.3s-0.4-0.6-0.4-1.1v-18.8c0-0.5,0.1-0.8,0.4-1.1c0.2-0.2,0.6-0.3,0.9-0.3
			h10.8c0.1,0,0.2,0,0.3,0.1c0.1,0.1,0.1,0.2,0.2,0.3c0.1,0.1,0.1,0.3,0.1,0.5c0,0.2,0,0.5,0,0.8c0,0.3,0,0.6,0,0.8
			c0,0.2-0.1,0.4-0.1,0.5c-0.1,0.1-0.1,0.2-0.2,0.3c-0.1,0.1-0.2,0.1-0.3,0.1h-7.7v5.3h6.5c0.1,0,0.2,0,0.3,0.1
			c0.1,0.1,0.2,0.2,0.2,0.3c0.1,0.1,0.1,0.3,0.1,0.5c0,0.2,0,0.5,0,0.8c0,0.3,0,0.6,0,0.8c0,0.2-0.1,0.4-0.1,0.5
			c-0.1,0.1-0.1,0.2-0.2,0.3c-0.1,0.1-0.2,0.1-0.3,0.1h-6.5v6.1h7.8c0.1,0,0.2,0,0.3,0.1c0.1,0.1,0.2,0.2,0.2,0.3
			c0.1,0.1,0.1,0.3,0.1,0.5C278.5,170.6,278.5,170.9,278.5,171.2z"/>
	</g>
	<g id="XMLID_61_">
		<rect id="XMLID_85_" x="163" y="182.2" class="st2" width="13.4" height="33.4"/>
		<polygon id="XMLID_78_" class="st2" points="248.7,215.6 282.1,182.2 263.2,182.2 229.8,215.6 263.2,249 282.1,249 		"/>
		<path id="XMLID_99_" class="st0" d="M196.4,182.2c-18.5,0-33.4,15-33.4,33.4c0,18.5,15,33.4,33.4,33.4s33.4-15,33.4-33.4
			C229.8,197.1,214.9,182.2,196.4,182.2z M196.4,235.6c-11.1,0-20-9-20-20s9-20,20-20s20,9,20,20S207.5,235.6,196.4,235.6z"/>
		<path id="XMLID_98_" class="st0" d="M163,215.6v4.2c0,8.8-7.1,15.9-15.9,15.9c-8.8,0-15.9-7.1-15.9-15.9v-37.6h-13.4v37.6
			c0,16.1,13.1,29.2,29.2,29.2s29.2-13.1,29.2-29.2v-4.2H163z"/>
		<g id="XMLID_66_">
			<rect id="XMLID_91_" x="229.8" y="182.2" class="st0" width="13.4" height="66.8"/>
		</g>
	</g>
</g>
<g>
	<path class="st2" d="M200,75.6v-8.1c-73.1,0-132.5,59.4-132.5,132.5h8.1C75.6,131.4,131.4,75.6,200,75.6z"/>
	<path class="st2" d="M200,324.4v8.1c73.1,0,132.5-59.4,132.5-132.5h-8.1C324.4,268.6,268.6,324.4,200,324.4z"/>
</g>
</svg>
