<?xml version="1.0" encoding="utf-8"?>
<!-- Generator: Adobe Illustrator 21.1.0, SVG Export Plug-In . SVG Version: 6.00 Build 0)  -->
<svg version="1.1" id="Layer_1" xmlns="http://www.w3.org/2000/svg" xmlns:xlink="http://www.w3.org/1999/xlink" x="0px" y="0px"
	 viewBox="0 0 300 100" style="enable-background:new 0 0 300 100;" xml:space="preserve">
<style type="text/css">
	.st0{fill:#0379BA;}
	.st1{fill:#FFFFFF;}
</style>
<g id="XMLID_7_">
	<g id="XMLID_11_">
		<polygon id="XMLID_89_" class="st0" points="208.4,11.2 51.4,11.2 28.1,57.3 208.4,57.3 		"/>
	</g>
	<g id="XMLID_5_">
		<g id="XMLID_12_">
			<path id="XMLID_86_" class="st1" d="M73.1,47V20.7H78V47H73.1z"/>
		</g>
		<g id="XMLID_18_">
			<path id="XMLID_82_" class="st1" d="M99.4,40.3h-9.9L86.9,47h-5.1l10.5-26.4h4.4L107,47h-5.1L99.4,40.3z M94.4,27
				c-0.9,2.8-1.7,5.1-2.5,6.9L91,36.3h6.8l-0.9-2.3C96.2,32.1,95.4,29.8,94.4,27L94.4,27z"/>
		</g>
		<g id="XMLID_24_">
			<path id="XMLID_79_" class="st1" d="M115.6,43h13v4h-17.8V20.7h17.1v4h-12.3v6.8h10.5v4h-10.5V43z"/>
		</g>
		<g id="XMLID_29_">
			<path id="XMLID_76_" class="st1" d="M146.7,39.5c0-0.7-0.2-1.2-0.5-1.6c-0.3-0.4-0.8-0.8-1.3-1c-0.6-0.3-1.2-0.5-1.9-0.6
				c-0.7-0.2-1.4-0.3-2.2-0.5c-1-0.2-2-0.5-2.9-0.8c-0.9-0.3-1.8-0.7-2.5-1.3c-0.7-0.5-1.3-1.2-1.7-2.1c-0.4-0.8-0.6-1.9-0.6-3.2
				c0-1.4,0.2-2.6,0.7-3.6c0.5-1,1.1-1.9,2-2.6c0.8-0.7,1.8-1.2,2.9-1.5c1.1-0.3,2.4-0.5,3.8-0.5c1.4,0,2.8,0.1,4.2,0.4
				s2.6,0.6,3.7,1.1v4.1c-1.4-0.5-2.7-0.9-3.9-1.2c-1.3-0.2-2.4-0.4-3.5-0.4c-1.6,0-2.8,0.3-3.7,0.9c-0.9,0.6-1.3,1.4-1.3,2.6
				c0,0.7,0.1,1.2,0.4,1.7c0.3,0.4,0.7,0.8,1.2,1.1c0.5,0.3,1,0.5,1.7,0.7c0.6,0.2,1.3,0.3,2,0.5c1.1,0.2,2.2,0.5,3.2,0.8
				c1,0.3,1.9,0.7,2.7,1.3s1.4,1.3,1.9,2.2c0.5,0.9,0.7,2,0.7,3.4c0,1.4-0.3,2.6-0.8,3.7c-0.5,1-1.3,1.9-2.2,2.6
				c-1,0.7-2.1,1.2-3.5,1.5c-1.4,0.3-2.9,0.5-4.5,0.5c-1.4,0-2.8-0.1-4.2-0.4c-1.4-0.3-2.5-0.7-3.5-1.2v-4.1c1.3,0.6,2.6,1,3.8,1.2
				c1.2,0.3,2.5,0.4,3.8,0.4c0.8,0,1.5-0.1,2.2-0.2c0.7-0.1,1.4-0.3,2-0.6c0.6-0.3,1.1-0.7,1.4-1.2
				C146.5,40.9,146.7,40.2,146.7,39.5z"/>
		</g>
		<g id="XMLID_31_">
			<path id="XMLID_73_" class="st1" d="M167.7,47h-4.8V24.7h-8.5v-4h21.8v4h-8.5V47z"/>
		</g>
		<g id="XMLID_34_">
			<path id="XMLID_70_" class="st1" d="M184.8,43h13v4H180V20.7h17.1v4h-12.3v6.8h10.5v4h-10.5V43z"/>
		</g>
	</g>
	<g id="XMLID_6_">
		<path id="XMLID_9_" class="st0" d="M127.8,72.8c0,1.2-0.2,2.3-0.5,3.2c-0.3,0.9-0.8,1.6-1.4,2.2c-0.6,0.6-1.4,1-2.2,1.2
			c-0.9,0.3-1.9,0.4-3.1,0.4h-3.2c-0.2,0-0.4-0.1-0.6-0.2c-0.2-0.1-0.2-0.4-0.2-0.7V67.1c0-0.3,0.1-0.5,0.2-0.7
			c0.2-0.1,0.4-0.2,0.6-0.2h3.5c1.2,0,2.2,0.1,3.1,0.4c0.8,0.3,1.6,0.7,2.1,1.3c0.6,0.6,1,1.2,1.3,2.1
			C127.7,70.8,127.8,71.7,127.8,72.8z M124.9,72.9c0-0.6-0.1-1.2-0.2-1.8c-0.2-0.6-0.4-1-0.7-1.4c-0.3-0.4-0.8-0.7-1.3-1
			c-0.5-0.2-1.2-0.3-2.1-0.3h-1.4v9.3h1.4c0.8,0,1.4-0.1,1.9-0.3c0.5-0.2,1-0.5,1.3-0.9c0.3-0.4,0.6-0.9,0.8-1.5
			C124.9,74.4,124.9,73.7,124.9,72.9z"/>
		<path id="XMLID_15_" class="st0" d="M140.7,78.8c0.1,0.3,0.1,0.5,0.2,0.6c0,0.1,0,0.3-0.1,0.3c-0.1,0.1-0.2,0.1-0.4,0.1
			c-0.2,0-0.5,0-0.8,0c-0.4,0-0.6,0-0.8,0c-0.2,0-0.4,0-0.5-0.1c-0.1,0-0.2-0.1-0.2-0.1c0-0.1-0.1-0.1-0.1-0.2l-0.9-2.7h-5.1
			l-0.9,2.7c0,0.1-0.1,0.2-0.1,0.2c0,0.1-0.1,0.1-0.2,0.2c-0.1,0-0.2,0.1-0.4,0.1c-0.2,0-0.4,0-0.7,0c-0.3,0-0.6,0-0.8,0
			c-0.2,0-0.3-0.1-0.4-0.2c-0.1-0.1-0.1-0.2-0.1-0.3c0-0.1,0.1-0.3,0.2-0.6l4.2-12.1c0-0.1,0.1-0.2,0.1-0.3s0.1-0.1,0.3-0.2
			c0.1,0,0.3-0.1,0.5-0.1c0.2,0,0.5,0,0.9,0c0.4,0,0.7,0,1,0c0.2,0,0.4,0,0.6,0.1c0.1,0,0.2,0.1,0.3,0.2c0.1,0.1,0.1,0.2,0.2,0.3
			L140.7,78.8z M134.5,68.8L134.5,68.8l-1.9,5.8h3.9L134.5,68.8z"/>
		<path id="XMLID_20_" class="st0" d="M146.4,74.6v4.8c0,0.1,0,0.1-0.1,0.2c0,0.1-0.1,0.1-0.2,0.1c-0.1,0-0.2,0.1-0.4,0.1
			c-0.2,0-0.4,0-0.7,0c-0.3,0-0.5,0-0.7,0c-0.2,0-0.3,0-0.4-0.1c-0.1,0-0.2-0.1-0.2-0.1c0-0.1-0.1-0.1-0.1-0.2v-4.8l-3.7-7.4
			c-0.1-0.3-0.2-0.5-0.3-0.6c0-0.1,0-0.3,0.1-0.3c0.1-0.1,0.2-0.1,0.4-0.1s0.5,0,0.9,0c0.3,0,0.6,0,0.8,0s0.3,0,0.5,0.1
			c0.1,0,0.2,0.1,0.2,0.2s0.1,0.1,0.2,0.2l1.5,3.3c0.1,0.3,0.3,0.7,0.4,1c0.1,0.4,0.3,0.7,0.4,1.1h0c0.1-0.4,0.3-0.7,0.4-1.1
			c0.1-0.4,0.3-0.7,0.4-1l1.5-3.3c0-0.1,0.1-0.2,0.1-0.3c0.1-0.1,0.1-0.1,0.2-0.2c0.1,0,0.2-0.1,0.4-0.1c0.2,0,0.4,0,0.7,0
			c0.4,0,0.7,0,0.9,0c0.2,0,0.4,0.1,0.5,0.1c0.1,0.1,0.1,0.2,0.1,0.3c0,0.1-0.1,0.3-0.3,0.6L146.4,74.6z"/>
		<path id="XMLID_22_" class="st0" d="M165.5,78.7c0,0.2,0,0.4,0,0.5c0,0.1,0,0.3-0.1,0.4c0,0.1-0.1,0.2-0.1,0.2
			c-0.1,0-0.1,0.1-0.2,0.1h-7.8c-0.2,0-0.3,0-0.4,0c-0.1,0-0.2-0.1-0.3-0.2c-0.1-0.1-0.1-0.2-0.2-0.4c0-0.2,0-0.4,0-0.6
			c0-0.2,0-0.4,0-0.6c0-0.2,0.1-0.3,0.1-0.4c0.1-0.1,0.1-0.3,0.2-0.4c0.1-0.1,0.2-0.3,0.3-0.4l2.4-2.5c0.5-0.5,0.8-0.9,1.1-1.3
			s0.5-0.8,0.7-1.1c0.2-0.3,0.3-0.6,0.3-0.9c0.1-0.3,0.1-0.5,0.1-0.8c0-0.2,0-0.4-0.1-0.7c-0.1-0.2-0.2-0.4-0.3-0.5
			c-0.1-0.2-0.3-0.3-0.5-0.4c-0.2-0.1-0.5-0.1-0.8-0.1c-0.4,0-0.8,0.1-1.1,0.2c-0.3,0.1-0.6,0.2-0.8,0.4c-0.2,0.1-0.4,0.2-0.6,0.4
			c-0.2,0.1-0.3,0.2-0.4,0.2c-0.1,0-0.1,0-0.2-0.1c0,0-0.1-0.1-0.1-0.2c0-0.1-0.1-0.2-0.1-0.4c0-0.2,0-0.4,0-0.6c0-0.2,0-0.3,0-0.4
			c0-0.1,0-0.2,0-0.3c0-0.1,0-0.2,0.1-0.2c0-0.1,0.1-0.1,0.2-0.2c0.1-0.1,0.2-0.2,0.5-0.3s0.5-0.3,0.9-0.4c0.3-0.1,0.7-0.2,1.1-0.3
			c0.4-0.1,0.8-0.1,1.3-0.1c0.7,0,1.3,0.1,1.9,0.3c0.5,0.2,1,0.4,1.3,0.7c0.4,0.3,0.6,0.7,0.8,1.1c0.2,0.4,0.3,0.9,0.3,1.4
			c0,0.4,0,0.9-0.1,1.3c-0.1,0.4-0.3,0.9-0.5,1.4c-0.3,0.5-0.6,1-1.1,1.6c-0.5,0.6-1.1,1.3-1.9,2.1l-1.6,1.6h5.4
			c0.1,0,0.1,0,0.2,0.1c0.1,0,0.1,0.1,0.2,0.2c0,0.1,0.1,0.2,0.1,0.3C165.5,78.3,165.5,78.5,165.5,78.7z"/>
		<path id="XMLID_26_" class="st0" d="M176.7,72.9c0,1.1-0.1,2.1-0.3,2.9c-0.2,0.9-0.5,1.6-0.9,2.2c-0.4,0.6-0.9,1.1-1.5,1.4
			c-0.6,0.3-1.4,0.5-2.3,0.5c-0.9,0-1.7-0.2-2.3-0.5c-0.6-0.3-1.1-0.8-1.5-1.4c-0.4-0.6-0.6-1.3-0.8-2.2c-0.1-0.9-0.2-1.8-0.2-2.9
			c0-1.1,0.1-2.1,0.3-2.9c0.2-0.9,0.5-1.6,0.9-2.2c0.4-0.6,0.9-1.1,1.5-1.4c0.6-0.3,1.4-0.5,2.3-0.5c0.9,0,1.7,0.2,2.3,0.5
			c0.6,0.3,1.1,0.8,1.5,1.4c0.4,0.6,0.6,1.3,0.7,2.2C176.6,70.9,176.7,71.8,176.7,72.9z M173.9,73.1c0-0.6,0-1.2-0.1-1.7
			c0-0.5-0.1-0.9-0.2-1.3c-0.1-0.4-0.2-0.7-0.3-0.9c-0.1-0.3-0.2-0.5-0.4-0.6c-0.2-0.2-0.3-0.3-0.5-0.3c-0.2-0.1-0.4-0.1-0.7-0.1
			c-0.4,0-0.8,0.1-1,0.3c-0.3,0.2-0.5,0.5-0.6,0.9c-0.2,0.4-0.3,0.9-0.3,1.5c-0.1,0.6-0.1,1.3-0.1,2.1c0,1,0,1.8,0.1,2.4
			c0.1,0.6,0.2,1.1,0.4,1.5s0.4,0.6,0.6,0.8c0.3,0.2,0.6,0.2,0.9,0.2c0.3,0,0.5,0,0.7-0.1c0.2-0.1,0.4-0.2,0.6-0.4
			c0.2-0.2,0.3-0.4,0.4-0.7c0.1-0.3,0.2-0.6,0.3-0.9c0.1-0.4,0.1-0.7,0.1-1.2C173.9,74.1,173.9,73.6,173.9,73.1z"/>
		<path id="XMLID_37_" class="st0" d="M187.2,78.7c0,0.2,0,0.4,0,0.5c0,0.1-0.1,0.2-0.1,0.3c0,0.1-0.1,0.1-0.1,0.2
			c0,0-0.1,0.1-0.2,0.1h-7.5c-0.1,0-0.1,0-0.2-0.1c0,0-0.1-0.1-0.1-0.2s-0.1-0.2-0.1-0.3c0-0.1,0-0.3,0-0.5c0-0.2,0-0.4,0-0.5
			s0-0.2,0.1-0.3c0-0.1,0.1-0.1,0.1-0.2c0,0,0.1-0.1,0.2-0.1h2.5v-8.9l-2.2,1.2c-0.2,0.1-0.3,0.1-0.4,0.1c-0.1,0-0.2,0-0.2-0.1
			c-0.1-0.1-0.1-0.2-0.1-0.3c0-0.1,0-0.4,0-0.6c0-0.2,0-0.3,0-0.4c0-0.1,0-0.2,0.1-0.3c0-0.1,0.1-0.1,0.1-0.2c0,0,0.1-0.1,0.2-0.2
			l2.9-1.9c0,0,0.1-0.1,0.1-0.1c0.1,0,0.1,0,0.2,0c0.1,0,0.2,0,0.3,0c0.1,0,0.3,0,0.5,0c0.3,0,0.5,0,0.6,0c0.2,0,0.3,0,0.4,0.1
			c0.1,0,0.1,0.1,0.2,0.1c0,0,0,0.1,0,0.2v11.2h2.2c0.1,0,0.1,0,0.2,0.1c0.1,0,0.1,0.1,0.1,0.2c0,0.1,0.1,0.2,0.1,0.3
			C187.2,78.4,187.2,78.5,187.2,78.7z"/>
		<path id="XMLID_39_" class="st0" d="M198.2,67.4c0,0.2,0,0.4,0,0.5c0,0.2,0,0.3-0.1,0.4s-0.1,0.3-0.1,0.4c0,0.1-0.1,0.2-0.1,0.4
			l-4.5,10.4c0,0.1-0.1,0.2-0.2,0.2c-0.1,0.1-0.2,0.1-0.3,0.1c-0.1,0-0.3,0.1-0.5,0.1c-0.2,0-0.4,0-0.7,0c-0.4,0-0.7,0-0.9,0
			c-0.2,0-0.4-0.1-0.5-0.1c-0.1-0.1-0.2-0.1-0.2-0.2c0-0.1,0-0.2,0.1-0.3l4.8-10.6h-5.7c-0.1,0-0.3-0.1-0.3-0.3
			c-0.1-0.2-0.1-0.5-0.1-0.9c0-0.2,0-0.4,0-0.5c0-0.2,0.1-0.3,0.1-0.4c0-0.1,0.1-0.2,0.1-0.2c0.1,0,0.1-0.1,0.2-0.1h8.1
			c0.1,0,0.2,0,0.3,0c0.1,0,0.2,0.1,0.2,0.2c0,0.1,0.1,0.2,0.1,0.4C198.2,66.9,198.2,67.1,198.2,67.4z"/>
	</g>
	<g id="XMLID_40_">
		<polygon id="XMLID_47_" class="st0" points="271.9,49.9 249.6,11.2 211.5,11.2 211.5,17.5 245.9,17.5 264.6,49.9 245.9,82.2 
			211.5,82.2 211.5,88.5 249.6,88.5 		"/>
	</g>
	<g id="XMLID_4_">
		<polygon id="XMLID_45_" class="st0" points="237.9,82.2 255.5,49.9 233.5,82.2 228.8,84.5 253.2,40 225.3,82.2 218.6,86.4 
			249.7,31.7 215.1,82.2 211.5,88.5 235.9,88.5 		"/>
	</g>
</g>
</svg>
