<?xml version="1.0" encoding="utf-8"?>
<!-- Generator: Adobe Illustrator 21.1.0, SVG Export Plug-In . SVG Version: 6.00 Build 0)  -->
<svg version="1.1" id="Layer_1" xmlns="http://www.w3.org/2000/svg" xmlns:xlink="http://www.w3.org/1999/xlink" x="0px" y="0px"
	 viewBox="0 0 200 100" style="enable-background:new 0 0 200 100;" xml:space="preserve">
<style type="text/css">
	.st0{fill:#F89B1F;}
	.st1{fill:#4E4D4C;}
	.st2{fill:#95CA5E;}
	.st3{fill:#629C42;}
	.st4{fill:#FFFFFF;}
</style>
<g id="XMLID_77_">
	<g id="XMLID_84_">
		<g id="XMLID_131_">
			<path id="XMLID_188_" class="st0" d="M57.2,59V34.5h7.1c9,0,13.6,4,13.6,12c0,3.8-1.3,6.8-3.8,9.1C71.6,57.9,68.2,59,64,59H57.2z
				 M61.2,38v17.6h3.2c2.9,0,5.1-0.8,6.7-2.4c1.6-1.6,2.4-3.8,2.4-6.7c0-5.7-3-8.6-8.9-8.6H61.2z"/>
			<path id="XMLID_191_" class="st0" d="M95.2,59H81.4V34.5h13.2V38h-9.1v6.9h8.4v3.4h-8.4v7.3h9.7V59z"/>
			<path id="XMLID_193_" class="st0" d="M117.6,59h-4.8l-3.9-6.6c-0.4-0.6-0.7-1.1-1-1.5c-0.3-0.4-0.7-0.8-1-1.1
				c-0.3-0.3-0.7-0.5-1.1-0.6c-0.4-0.1-0.9-0.2-1.4-0.2h-1.6v10h-4.1V34.5h8.1c1.2,0,2.2,0.1,3.2,0.4c1,0.3,1.8,0.7,2.5,1.2
				c0.7,0.6,1.3,1.2,1.7,2.1c0.4,0.8,0.6,1.8,0.6,2.9c0,0.9-0.1,1.7-0.4,2.4c-0.3,0.7-0.6,1.4-1.1,1.9c-0.5,0.6-1,1-1.7,1.4
				c-0.7,0.4-1.4,0.7-2.2,0.9v0.1c0.4,0.3,0.8,0.5,1.2,0.8s0.6,0.6,0.9,0.9s0.6,0.7,0.9,1.1c0.3,0.4,0.6,0.9,1,1.4L117.6,59z
				 M102.7,37.8v8h3.4c0.6,0,1.2-0.1,1.7-0.3c0.5-0.2,1-0.5,1.4-0.8c0.4-0.4,0.7-0.8,0.9-1.3c0.2-0.5,0.3-1.1,0.3-1.8
				c0-1.2-0.4-2.1-1.1-2.8c-0.7-0.7-1.8-1-3.2-1H102.7z"/>
		</g>
		<g id="XMLID_130_">
			<path id="XMLID_186_" class="st0" d="M30.6,59h-5.3l-8.5-11.2c-0.3-0.4-0.5-0.7-0.6-0.9h-0.1V59H12V34.5h4.1V46h0.1
				c0.1-0.3,0.3-0.5,0.6-0.8l8.2-10.7h4.9l-9.6,11.8L30.6,59z"/>
		</g>
		<g id="XMLID_129_">
			<path id="XMLID_175_" class="st1" d="M120.1,59.1V34.6h1.7v23h9.8v1.5H120.1z"/>
			<path id="XMLID_177_" class="st1" d="M152.8,59.1l-2.8-7.6h-10.6l-2.8,7.6h-1.9l9.3-24.5h1.6l9.1,24.5H152.8z M145.3,38.6
				c-0.1-0.3-0.2-0.7-0.3-1c-0.1-0.3-0.2-0.6-0.3-0.9h-0.1c-0.2,0.8-0.4,1.4-0.6,1.8l-4.1,11.4h9.5L145.3,38.6z"/>
			<path id="XMLID_180_" class="st1" d="M158,59.1V34.6h6.4c1.9,0,3.5,0.5,4.6,1.6c1.1,1,1.7,2.4,1.7,4.1c0,1.4-0.4,2.7-1.1,3.7
				c-0.8,1-1.8,1.8-3.2,2.2v0.1c1.7,0.2,3,0.8,4,1.8c1,1.1,1.5,2.4,1.5,4c0,2.1-0.7,3.7-2,5.1c-1.3,1.3-3.1,2-5.4,2H158z
				 M159.6,36.2v9.5h3.4c1.8,0,3.2-0.5,4.3-1.4c1.1-0.9,1.6-2.1,1.6-3.7c0-2.9-1.7-4.4-5.2-4.4H159.6z M159.6,47.2v10.4h4.5
				c1.9,0,3.4-0.5,4.4-1.4c1-0.9,1.5-2.2,1.5-3.9c0-3.4-2.3-5.1-6.9-5.1H159.6z"/>
			<path id="XMLID_184_" class="st1" d="M175.4,58.3v-1.9c1.8,1.1,3.5,1.7,5.3,1.7c1.9,0,3.4-0.4,4.4-1.2c1-0.8,1.5-1.9,1.5-3.3
				c0-1.3-0.3-2.3-1-3c-0.7-0.7-2.1-1.8-4.3-3.1c-2.5-1.4-4.1-2.7-4.7-3.6c-0.7-1-1-2.1-1-3.4c0-1.7,0.7-3.2,2-4.4
				c1.3-1.2,3.1-1.8,5.4-1.8c1.5,0,2.9,0.2,4.4,0.7v1.8c-1.4-0.6-3-1-4.6-1c-1.7,0-3,0.4-4,1.3s-1.5,1.9-1.5,3.2c0,1.3,0.3,2.3,1,3
				c0.7,0.7,2.1,1.8,4.3,3c2.3,1.3,3.8,2.5,4.6,3.5c0.8,1,1.1,2.2,1.1,3.5c0,1.9-0.7,3.4-2,4.6c-1.3,1.2-3.1,1.8-5.5,1.8
				c-0.8,0-1.8-0.1-2.9-0.4C176.8,58.9,175.9,58.6,175.4,58.3z"/>
		</g>
		<g id="XMLID_97_">
			<g id="XMLID_128_">
				<path id="XMLID_173_" class="st2" d="M33.8,41.2c0,0,5.2-2.1,8.2,2.5l-2.5,3.7l-6-1.6L33.8,41.2z"/>
			</g>
			<g id="XMLID_127_">
				<path id="XMLID_132_" class="st3" d="M49.4,45.9c-1.5-2.7-5-3.6-7.6-2l0,0c-2.7,1.5-6.1,0.6-7.6-2l-0.3-0.6
					c-0.5,0.7-0.8,1.6-1.1,2.5c-1.3,4.7,1.5,9.5,6.2,10.8c4.7,1.3,9.5-1.5,10.8-6.2c0.1-0.5,0.2-0.9,0.3-1.4L49.4,45.9z"/>
			</g>
			<g id="XMLID_126_">
				<path id="XMLID_200_" class="st1" d="M48.6,35.1l0.7-2.7l2.8,0.8l0.4-1.3c0.2-0.8,0-1.6-0.7-1.8L48,29l-0.7,2.7l-0.9,3.4
					c-0.3,1.2,0.4,2.4,1.6,2.7c3,2.6,4.6,6.8,3.5,10.9c-1.5,5.6-7.3,9-12.9,7.5s-8.9-7.3-7.4-12.9c1.1-4.1,4.4-6.9,8.4-7.7
					c1.2,0.3,2.4-0.4,2.7-1.6l0.9-3.4l0.7-2.7l-3.7-1c-0.8-0.2-1.4,0.4-1.6,1.2l-0.4,1.3l2.8,0.8l-0.7,2.7
					C34.8,33.2,30,37,28.5,42.5c-1.9,7,2.3,14.3,9.3,16.1c7,1.9,14.2-2.3,16.1-9.3C55.4,43.8,53.1,38.1,48.6,35.1z"/>
			</g>
			<g id="XMLID_119_">
				<path id="XMLID_260_" class="st4" d="M38.2,50.9c0,0.1-0.1,0.2-0.1,0.3c0,0.1,0,0.1-0.1,0.1c0,0,0,0-0.1,0c0,0,0,0-0.1-0.1
					l-2.4-2.5c0,0,0-0.1,0-0.2c0-0.1,0-0.2,0.1-0.3c0-0.1,0-0.1,0.1-0.2c0-0.1,0-0.1,0.1-0.1c0,0,0-0.1,0.1-0.1c0,0,0,0,0.1,0
					l3.3-0.9c0.1,0,0.1,0,0.1,0.1c0,0.1,0,0.2-0.1,0.4c0,0.1-0.1,0.2-0.1,0.3c0,0.1,0,0.1-0.1,0.2c0,0,0,0.1-0.1,0.1
					c0,0-0.1,0-0.1,0l-2.5,0.6l1.8,1.7c0,0,0.1,0.1,0.1,0.1s0,0.1,0,0.1c0,0,0,0.1,0,0.2C38.3,50.7,38.2,50.8,38.2,50.9z"/>
			</g>
			<g id="XMLID_116_">
				<path id="XMLID_257_" class="st4" d="M44.9,50.8c0,0.1,0,0.1-0.1,0.2c0,0.1,0,0.1-0.1,0.1c0,0,0,0.1-0.1,0.1c0,0,0,0-0.1,0
					l-3.3,0.9c0,0-0.1,0-0.1,0c0,0,0,0,0-0.1c0,0,0-0.1,0-0.1c0-0.1,0-0.1,0.1-0.2c0-0.1,0.1-0.2,0.1-0.3c0-0.1,0-0.1,0.1-0.2
					c0,0,0-0.1,0.1-0.1c0,0,0.1,0,0.1,0l2.5-0.6l-1.8-1.7c0,0-0.1-0.1-0.1-0.1c0,0,0-0.1,0-0.1c0,0,0-0.1,0-0.2c0-0.1,0-0.2,0.1-0.3
					c0-0.1,0.1-0.2,0.1-0.3c0-0.1,0-0.1,0.1-0.1c0,0,0,0,0.1,0c0,0,0.1,0,0.1,0.1l2.4,2.5c0,0,0,0.1,0,0.2
					C45,50.5,44.9,50.6,44.9,50.8z"/>
			</g>
			<g id="XMLID_115_">
				
					<rect id="XMLID_199_" x="37.7" y="49.1" transform="matrix(0.524 -0.8517 0.8517 0.524 -22.9975 57.8886)" class="st4" width="5.2" height="0.8"/>
			</g>
			<g id="XMLID_114_">
				
					<ellipse id="XMLID_198_" transform="matrix(0.2588 -0.9659 0.9659 0.2588 9.1098 62.4636)" class="st1" cx="45.3" cy="25.3" rx="1.3" ry="1.3"/>
			</g>
			<g id="XMLID_113_">
				
					<ellipse id="XMLID_197_" transform="matrix(0.2588 -0.9659 0.9659 0.2588 7.1694 66.1604)" class="st1" cx="46.7" cy="28.4" rx="0.9" ry="0.9"/>
			</g>
			<g id="XMLID_112_">
				
					<ellipse id="XMLID_196_" transform="matrix(0.2588 -0.9659 0.9659 0.2588 3.3878 65.4123)" class="st1" cx="44.3" cy="30.5" rx="0.7" ry="0.7"/>
			</g>
			<g id="XMLID_100_">
				
					<ellipse id="XMLID_174_" transform="matrix(0.2588 -0.9659 0.9659 0.2588 2.0136 68.7299)" class="st1" cx="45.8" cy="33.1" rx="0.3" ry="0.3"/>
			</g>
		</g>
	</g>
	<g id="XMLID_83_">
		<path id="XMLID_133_" class="st1" d="M22,68.5l-2.2,7.4h-1.2l-1.5-5.3C17,70.4,17,70.1,17,69.9h0c0,0.2-0.1,0.4-0.2,0.7l-1.6,5.3
			h-1.2l-2.2-7.4H13l1.5,5.5c0,0.2,0.1,0.4,0.1,0.7h0.1c0-0.2,0.1-0.4,0.1-0.7l1.7-5.5h1.1l1.5,5.6c0,0.2,0.1,0.4,0.1,0.7h0.1
			c0-0.2,0.1-0.4,0.1-0.7l1.5-5.6H22z"/>
		<path id="XMLID_135_" class="st1" d="M35.6,68.5l-2.2,7.4h-1.2l-1.5-5.3c-0.1-0.2-0.1-0.4-0.1-0.7h0c0,0.2-0.1,0.4-0.2,0.7
			l-1.6,5.3h-1.2l-2.2-7.4h1.2l1.5,5.5c0,0.2,0.1,0.4,0.1,0.7h0.1c0-0.2,0.1-0.4,0.1-0.7l1.7-5.5h1.1l1.5,5.6c0,0.2,0.1,0.4,0.1,0.7
			h0.1c0-0.2,0.1-0.4,0.1-0.7l1.5-5.6H35.6z"/>
		<path id="XMLID_137_" class="st1" d="M49.3,68.5l-2.2,7.4h-1.2l-1.5-5.3c-0.1-0.2-0.1-0.4-0.1-0.7h0c0,0.2-0.1,0.4-0.2,0.7
			l-1.7,5.3h-1.2l-2.2-7.4h1.2l1.5,5.5c0,0.2,0.1,0.4,0.1,0.7h0.1c0-0.2,0.1-0.4,0.1-0.7l1.7-5.5h1.1l1.5,5.6c0,0.2,0.1,0.4,0.1,0.7
			h0.1c0-0.2,0.1-0.4,0.1-0.7l1.5-5.6H49.3z"/>
		<path id="XMLID_139_" class="st1" d="M53.3,76c-0.2,0-0.4-0.1-0.6-0.2c-0.2-0.2-0.2-0.3-0.2-0.6c0-0.2,0.1-0.4,0.2-0.6
			c0.2-0.2,0.3-0.2,0.6-0.2c0.2,0,0.4,0.1,0.6,0.2c0.2,0.2,0.2,0.4,0.2,0.6c0,0.2-0.1,0.4-0.2,0.6C53.7,75.9,53.5,76,53.3,76z"/>
		<path id="XMLID_141_" class="st1" d="M65.1,75.8h-1.7l-3.3-3.5h0v3.5H59V64.9h1.2v6.9h0l3.1-3.4h1.5L61.4,72L65.1,75.8z"/>
		<path id="XMLID_143_" class="st1" d="M72.1,76c-1.1,0-2-0.3-2.6-1c-0.7-0.7-1-1.6-1-2.7c0-1.2,0.3-2.2,1-2.9c0.7-0.7,1.6-1,2.7-1
			c1.1,0,2,0.3,2.6,1c0.6,0.7,0.9,1.6,0.9,2.8c0,1.2-0.3,2.1-1,2.8C74.1,75.7,73.2,76,72.1,76z M72.2,69.3c-0.8,0-1.4,0.3-1.8,0.8
			c-0.4,0.5-0.7,1.2-0.7,2.1c0,0.9,0.2,1.6,0.7,2.1c0.4,0.5,1,0.8,1.8,0.8c0.8,0,1.4-0.2,1.8-0.7c0.4-0.5,0.6-1.2,0.6-2.1
			c0-0.9-0.2-1.6-0.6-2.1S72.9,69.3,72.2,69.3z"/>
		<path id="XMLID_146_" class="st1" d="M86.9,75.8h-1.2v-1.3h0c-0.5,1-1.4,1.4-2.5,1.4c-0.9,0-1.7-0.3-2.2-1
			c-0.6-0.7-0.8-1.6-0.8-2.7c0-1.2,0.3-2.2,0.9-2.9c0.6-0.7,1.4-1.1,2.5-1.1c1,0,1.8,0.4,2.2,1.2h0v-4.6h1.2V75.8z M85.7,72.5v-1.1
			c0-0.6-0.2-1.1-0.6-1.5c-0.4-0.4-0.9-0.6-1.5-0.6c-0.7,0-1.3,0.3-1.7,0.8c-0.4,0.5-0.6,1.3-0.6,2.2c0,0.9,0.2,1.5,0.6,2
			c0.4,0.5,0.9,0.7,1.6,0.7c0.7,0,1.2-0.2,1.6-0.7C85.5,73.8,85.7,73.2,85.7,72.5z"/>
		<path id="XMLID_149_" class="st1" d="M98.2,72.5H93c0,0.8,0.2,1.5,0.7,1.9c0.4,0.4,1,0.7,1.7,0.7c0.8,0,1.6-0.3,2.3-0.8v1.1
			C97,75.8,96.2,76,95.1,76c-1,0-1.9-0.3-2.5-1c-0.6-0.7-0.9-1.6-0.9-2.8c0-1.1,0.3-2.1,1-2.8c0.7-0.7,1.5-1.1,2.4-1.1
			c1,0,1.7,0.3,2.2,0.9c0.5,0.6,0.8,1.5,0.8,2.6V72.5z M97,71.5c0-0.7-0.2-1.2-0.5-1.6c-0.3-0.4-0.8-0.6-1.4-0.6
			c-0.6,0-1,0.2-1.4,0.6s-0.6,0.9-0.7,1.6H97z"/>
		<path id="XMLID_152_" class="st1" d="M106.8,69.7c-0.2-0.2-0.5-0.2-0.9-0.2c-0.5,0-0.9,0.2-1.3,0.7s-0.5,1.1-0.5,1.9v3.8h-1.2
			v-7.4h1.2V70h0c0.2-0.5,0.4-0.9,0.8-1.2c0.3-0.3,0.7-0.4,1.2-0.4c0.3,0,0.5,0,0.7,0.1V69.7z"/>
		<path id="XMLID_154_" class="st1" d="M112.2,75.8H111V64.9h1.2V75.8z"/>
		<path id="XMLID_156_" class="st1" d="M122.8,75.8h-1.2v-1.2h0c-0.5,0.9-1.3,1.3-2.3,1.3c-0.7,0-1.3-0.2-1.7-0.6
			c-0.4-0.4-0.6-0.9-0.6-1.5c0-1.4,0.8-2.2,2.4-2.4l2.2-0.3c0-1.3-0.5-1.9-1.5-1.9c-0.9,0-1.7,0.3-2.4,0.9V69
			c0.7-0.5,1.6-0.7,2.5-0.7c1.7,0,2.6,0.9,2.6,2.8V75.8z M121.6,72.1l-1.8,0.2c-0.5,0.1-1,0.2-1.2,0.4c-0.3,0.2-0.4,0.5-0.4,1
			c0,0.4,0.1,0.7,0.4,0.9c0.3,0.2,0.6,0.3,1,0.3c0.6,0,1.1-0.2,1.5-0.6c0.4-0.4,0.6-0.9,0.6-1.6V72.1z"/>
		<path id="XMLID_159_" class="st1" d="M129.2,74.8L129.2,74.8l0,1.1H128V64.9h1.2v4.8h0c0.6-1,1.4-1.5,2.6-1.5c0.9,0,1.7,0.3,2.2,1
			c0.5,0.7,0.8,1.5,0.8,2.7c0,1.2-0.3,2.2-0.9,3c-0.6,0.7-1.4,1.1-2.5,1.1C130.4,76,129.7,75.6,129.2,74.8z M129.2,71.8v1
			c0,0.6,0.2,1.1,0.6,1.6c0.4,0.4,0.9,0.6,1.5,0.6c0.7,0,1.3-0.3,1.7-0.8s0.6-1.3,0.6-2.3c0-0.8-0.2-1.5-0.6-1.9
			c-0.4-0.5-0.9-0.7-1.5-0.7c-0.7,0-1.2,0.2-1.7,0.7C129.4,70.5,129.2,71.1,129.2,71.8z"/>
		<path id="XMLID_162_" class="st1" d="M139.2,75.6v-1.3c0.6,0.5,1.4,0.7,2.1,0.7c1,0,1.6-0.3,1.6-1c0-0.2,0-0.4-0.1-0.5
			c-0.1-0.1-0.2-0.3-0.4-0.4c-0.2-0.1-0.3-0.2-0.5-0.3c-0.2-0.1-0.4-0.2-0.7-0.3c-0.3-0.1-0.6-0.3-0.9-0.4c-0.2-0.1-0.5-0.3-0.6-0.4
			c-0.2-0.2-0.3-0.4-0.4-0.6c-0.1-0.2-0.1-0.5-0.1-0.7c0-0.3,0.1-0.7,0.2-0.9c0.2-0.3,0.4-0.5,0.6-0.7c0.3-0.2,0.6-0.3,0.9-0.4
			c0.3-0.1,0.7-0.1,1-0.1c0.6,0,1.2,0.1,1.7,0.3v1.2c-0.5-0.4-1.2-0.5-1.9-0.5c-0.2,0-0.4,0-0.6,0.1c-0.2,0.1-0.3,0.1-0.5,0.2
			c-0.1,0.1-0.2,0.2-0.3,0.3c-0.1,0.1-0.1,0.3-0.1,0.4c0,0.2,0,0.4,0.1,0.5c0.1,0.1,0.2,0.2,0.3,0.3c0.1,0.1,0.3,0.2,0.5,0.3
			c0.2,0.1,0.4,0.2,0.7,0.3c0.3,0.1,0.6,0.3,0.9,0.4c0.3,0.1,0.5,0.3,0.7,0.4c0.2,0.2,0.3,0.4,0.4,0.6c0.1,0.2,0.1,0.5,0.1,0.8
			c0,0.4-0.1,0.7-0.2,1c-0.2,0.3-0.4,0.5-0.6,0.7c-0.3,0.2-0.6,0.3-0.9,0.4c-0.4,0.1-0.7,0.1-1.1,0.1
			C140.4,76,139.7,75.9,139.2,75.6z"/>
		<path id="XMLID_164_" class="st1" d="M149.2,76c-0.2,0-0.4-0.1-0.6-0.2c-0.2-0.2-0.2-0.3-0.2-0.6c0-0.2,0.1-0.4,0.2-0.6
			c0.2-0.2,0.3-0.2,0.6-0.2c0.2,0,0.4,0.1,0.6,0.2c0.2,0.2,0.2,0.4,0.2,0.6c0,0.2-0.1,0.4-0.2,0.6C149.6,75.9,149.5,76,149.2,76z"/>
		<path id="XMLID_166_" class="st1" d="M160,75.5c-0.6,0.3-1.2,0.5-2,0.5c-1.1,0-1.9-0.3-2.5-1c-0.6-0.7-1-1.6-1-2.7
			c0-1.2,0.3-2.2,1-2.9c0.7-0.7,1.6-1.1,2.8-1.1c0.6,0,1.2,0.1,1.7,0.4v1.2c-0.5-0.4-1.1-0.6-1.8-0.6c-0.8,0-1.4,0.3-1.9,0.8
			c-0.5,0.5-0.7,1.3-0.7,2.1c0,0.9,0.2,1.5,0.7,2c0.5,0.5,1.1,0.7,1.8,0.7c0.6,0,1.2-0.2,1.8-0.6V75.5z"/>
		<path id="XMLID_168_" class="st1" d="M167.8,76c-1.1,0-2-0.3-2.6-1c-0.7-0.7-1-1.6-1-2.7c0-1.2,0.3-2.2,1-2.9c0.7-0.7,1.6-1,2.7-1
			c1.1,0,2,0.3,2.6,1c0.6,0.7,0.9,1.6,0.9,2.8c0,1.2-0.3,2.1-1,2.8C169.8,75.7,168.9,76,167.8,76z M167.9,69.3
			c-0.8,0-1.4,0.3-1.8,0.8c-0.4,0.5-0.7,1.2-0.7,2.1c0,0.9,0.2,1.6,0.7,2.1c0.4,0.5,1,0.8,1.8,0.8c0.8,0,1.4-0.2,1.8-0.7
			c0.4-0.5,0.6-1.2,0.6-2.1c0-0.9-0.2-1.6-0.6-2.1C169.3,69.5,168.7,69.3,167.9,69.3z"/>
		<path id="XMLID_171_" class="st1" d="M186.8,75.8h-1.2v-4.2c0-0.8-0.1-1.4-0.4-1.8s-0.7-0.5-1.3-0.5c-0.5,0-0.9,0.2-1.3,0.7
			c-0.4,0.5-0.5,1-0.5,1.7v4.2H181v-4.4c0-1.5-0.6-2.2-1.7-2.2c-0.5,0-0.9,0.2-1.3,0.7c-0.3,0.4-0.5,1-0.5,1.7v4.2h-1.2v-7.4h1.2
			v1.2h0c0.5-0.9,1.3-1.3,2.3-1.3c0.5,0,0.9,0.1,1.3,0.4c0.4,0.3,0.6,0.6,0.8,1.1c0.5-1,1.4-1.5,2.5-1.5c1.6,0,2.4,1,2.4,3V75.8z"/>
	</g>
</g>
</svg>
