<?xml version="1.0" encoding="utf-8"?>
<!-- Generator: Adobe Illustrator 21.1.0, SVG Export Plug-In . SVG Version: 6.00 Build 0)  -->
<svg version="1.1" id="Layer_1" xmlns="http://www.w3.org/2000/svg" xmlns:xlink="http://www.w3.org/1999/xlink" x="0px" y="0px"
	 viewBox="0 0 200 100" style="enable-background:new 0 0 200 100;" xml:space="preserve">
<style type="text/css">
	.st0{fill:#0078B9;}
	.st1{fill:#FFFFFF;}
	.st2{fill:#444445;}
</style>
<g id="XMLID_7_">
	<g id="XMLID_11_">
		<polygon id="XMLID_89_" class="st0" points="138.8,24.2 34.5,24.2 19,54.9 138.8,54.9 		"/>
	</g>
	<g id="XMLID_5_">
		<g id="XMLID_12_">
			<path id="XMLID_86_" class="st1" d="M48.9,48V30.5h3.2V48H48.9z"/>
		</g>
		<g id="XMLID_18_">
			<path id="XMLID_82_" class="st1" d="M66.4,43.6h-6.6L58,48h-3.4l6.9-17.5h2.9L71.5,48h-3.4L66.4,43.6z M63,34.7
				c-0.6,1.8-1.2,3.4-1.6,4.6l-0.6,1.6h4.5l-0.6-1.6C64.3,38.1,63.7,36.6,63,34.7L63,34.7z"/>
		</g>
		<g id="XMLID_24_">
			<path id="XMLID_79_" class="st1" d="M77.2,45.3h8.6V48H73.9V30.5h11.3v2.7h-8.1v4.5h7v2.7h-7V45.3z"/>
		</g>
		<g id="XMLID_29_">
			<path id="XMLID_76_" class="st1" d="M97.8,43c0-0.4-0.1-0.8-0.3-1.1c-0.2-0.3-0.5-0.5-0.9-0.7c-0.4-0.2-0.8-0.3-1.3-0.4
				c-0.5-0.1-1-0.2-1.5-0.3c-0.7-0.1-1.3-0.3-1.9-0.5c-0.6-0.2-1.2-0.5-1.6-0.9c-0.5-0.4-0.8-0.8-1.1-1.4c-0.3-0.6-0.4-1.3-0.4-2.1
				c0-0.9,0.2-1.7,0.5-2.4c0.3-0.7,0.8-1.3,1.3-1.7c0.6-0.4,1.2-0.8,1.9-1c0.7-0.2,1.6-0.3,2.5-0.3c0.9,0,1.9,0.1,2.8,0.3
				c0.9,0.2,1.8,0.4,2.4,0.7v2.7c-0.9-0.4-1.8-0.6-2.6-0.8c-0.8-0.2-1.6-0.2-2.3-0.2c-1.1,0-1.9,0.2-2.4,0.6c-0.6,0.4-0.9,1-0.9,1.7
				c0,0.4,0.1,0.8,0.3,1.1c0.2,0.3,0.4,0.5,0.8,0.7c0.3,0.2,0.7,0.3,1.1,0.5c0.4,0.1,0.9,0.2,1.3,0.3c0.7,0.2,1.5,0.3,2.1,0.5
				c0.7,0.2,1.3,0.5,1.8,0.9c0.5,0.4,0.9,0.8,1.2,1.4c0.3,0.6,0.5,1.3,0.5,2.3c0,0.9-0.2,1.8-0.5,2.4c-0.3,0.7-0.8,1.3-1.5,1.7
				c-0.6,0.4-1.4,0.8-2.3,1s-1.9,0.3-3,0.3c-1,0-1.9-0.1-2.8-0.3c-0.9-0.2-1.7-0.5-2.3-0.8v-2.7c0.9,0.4,1.7,0.6,2.5,0.8
				c0.8,0.2,1.7,0.3,2.5,0.3c0.5,0,1,0,1.5-0.1c0.5-0.1,0.9-0.2,1.3-0.4c0.4-0.2,0.7-0.5,0.9-0.8C97.7,43.9,97.8,43.5,97.8,43z"/>
		</g>
		<g id="XMLID_31_">
			<path id="XMLID_73_" class="st1" d="M111.8,48h-3.2V33.2h-5.7v-2.7h14.5v2.7h-5.6V48z"/>
		</g>
		<g id="XMLID_34_">
			<path id="XMLID_70_" class="st1" d="M123.1,45.3h8.6V48h-11.8V30.5h11.3v2.7h-8.1v4.5h7v2.7h-7V45.3z"/>
		</g>
	</g>
	<g id="XMLID_36_">
		<polygon id="XMLID_8_" class="st2" points="58,54.9 69.9,75.8 138.8,75.8 138.8,54.9 		"/>
	</g>
	<g id="XMLID_6_">
		<path id="XMLID_9_" class="st1" d="M85.3,65.1c0,0.8-0.1,1.5-0.3,2.1c-0.2,0.6-0.5,1.1-0.9,1.4c-0.4,0.4-0.9,0.6-1.5,0.8
			c-0.6,0.2-1.3,0.3-2.1,0.3h-2.2c-0.2,0-0.3,0-0.4-0.1s-0.2-0.2-0.2-0.4v-7.9c0-0.2,0.1-0.4,0.2-0.4s0.2-0.1,0.4-0.1h2.3
			c0.8,0,1.5,0.1,2,0.3c0.6,0.2,1,0.5,1.4,0.8c0.4,0.4,0.7,0.8,0.9,1.4C85.2,63.8,85.3,64.4,85.3,65.1z M83.4,65.2
			c0-0.4-0.1-0.8-0.2-1.2c-0.1-0.4-0.3-0.7-0.5-1c-0.2-0.3-0.5-0.5-0.9-0.6c-0.3-0.2-0.8-0.2-1.4-0.2h-0.9v6.1h1
			c0.5,0,0.9-0.1,1.3-0.2c0.3-0.1,0.6-0.3,0.9-0.6c0.2-0.3,0.4-0.6,0.5-1C83.3,66.2,83.4,65.7,83.4,65.2z"/>
		<path id="XMLID_15_" class="st1" d="M93.8,69.1c0.1,0.2,0.1,0.3,0.1,0.4c0,0.1,0,0.2-0.1,0.2c-0.1,0-0.1,0.1-0.3,0.1
			c-0.1,0-0.3,0-0.5,0c-0.2,0-0.4,0-0.6,0c-0.1,0-0.2,0-0.3,0c-0.1,0-0.1,0-0.1-0.1c0,0-0.1-0.1-0.1-0.1l-0.6-1.8H88l-0.6,1.8
			c0,0.1,0,0.1-0.1,0.2c0,0-0.1,0.1-0.1,0.1c-0.1,0-0.2,0-0.3,0.1c-0.1,0-0.3,0-0.5,0c-0.2,0-0.4,0-0.5,0c-0.1,0-0.2,0-0.3-0.1
			c0-0.1-0.1-0.1,0-0.2c0-0.1,0-0.2,0.1-0.4l2.8-8c0-0.1,0.1-0.1,0.1-0.2c0,0,0.1-0.1,0.2-0.1c0.1,0,0.2,0,0.3,0c0.1,0,0.3,0,0.6,0
			c0.3,0,0.5,0,0.7,0c0.2,0,0.3,0,0.4,0c0.1,0,0.2,0.1,0.2,0.1c0,0.1,0.1,0.1,0.1,0.2L93.8,69.1z M89.7,62.5L89.7,62.5l-1.3,3.8H91
			L89.7,62.5z"/>
		<path id="XMLID_20_" class="st1" d="M97.6,66.4v3.2c0,0,0,0.1,0,0.1c0,0-0.1,0.1-0.2,0.1c-0.1,0-0.2,0-0.3,0.1c-0.1,0-0.3,0-0.4,0
			c-0.2,0-0.3,0-0.4,0c-0.1,0-0.2,0-0.3-0.1c-0.1,0-0.1-0.1-0.2-0.1c0,0,0-0.1,0-0.1v-3.2l-2.5-4.9c-0.1-0.2-0.1-0.3-0.2-0.4
			c0-0.1,0-0.2,0-0.2s0.2-0.1,0.3-0.1c0.1,0,0.3,0,0.6,0c0.2,0,0.4,0,0.5,0c0.1,0,0.2,0,0.3,0.1c0.1,0,0.1,0.1,0.2,0.1
			c0,0,0.1,0.1,0.1,0.2l1,2.2c0.1,0.2,0.2,0.4,0.3,0.7c0.1,0.2,0.2,0.5,0.3,0.7h0c0.1-0.3,0.2-0.5,0.3-0.7c0.1-0.2,0.2-0.5,0.3-0.7
			l1-2.2c0-0.1,0.1-0.1,0.1-0.2c0,0,0.1-0.1,0.2-0.1c0.1,0,0.2,0,0.3-0.1c0.1,0,0.3,0,0.5,0c0.3,0,0.5,0,0.6,0c0.1,0,0.2,0,0.3,0.1
			s0.1,0.1,0,0.2c0,0.1-0.1,0.2-0.2,0.4L97.6,66.4z"/>
		<path id="XMLID_22_" class="st1" d="M110.3,69c0,0.1,0,0.3,0,0.3c0,0.1,0,0.2-0.1,0.2c0,0.1-0.1,0.1-0.1,0.1c0,0-0.1,0-0.1,0h-5.2
			c-0.1,0-0.2,0-0.3,0c-0.1,0-0.1-0.1-0.2-0.1s-0.1-0.1-0.1-0.2c0-0.1,0-0.2,0-0.4c0-0.2,0-0.3,0-0.4c0-0.1,0-0.2,0.1-0.3
			c0-0.1,0.1-0.2,0.1-0.3c0.1-0.1,0.1-0.2,0.2-0.3l1.6-1.7c0.3-0.3,0.6-0.6,0.8-0.9c0.2-0.3,0.3-0.5,0.4-0.7
			c0.1-0.2,0.2-0.4,0.2-0.6c0-0.2,0.1-0.4,0.1-0.5c0-0.2,0-0.3-0.1-0.4c0-0.1-0.1-0.3-0.2-0.4c-0.1-0.1-0.2-0.2-0.4-0.2
			c-0.1-0.1-0.3-0.1-0.5-0.1c-0.3,0-0.5,0-0.7,0.1c-0.2,0.1-0.4,0.1-0.6,0.2s-0.3,0.2-0.4,0.2c-0.1,0.1-0.2,0.1-0.3,0.1
			c0,0-0.1,0-0.1,0c0,0-0.1-0.1-0.1-0.1c0-0.1,0-0.2,0-0.3c0-0.1,0-0.2,0-0.4c0-0.1,0-0.2,0-0.3c0-0.1,0-0.1,0-0.2
			c0-0.1,0-0.1,0.1-0.1c0,0,0.1-0.1,0.1-0.1c0.1-0.1,0.2-0.1,0.3-0.2c0.2-0.1,0.3-0.2,0.6-0.3c0.2-0.1,0.5-0.1,0.8-0.2
			c0.3-0.1,0.6-0.1,0.9-0.1c0.5,0,0.9,0.1,1.2,0.2c0.4,0.1,0.6,0.3,0.9,0.5c0.2,0.2,0.4,0.5,0.5,0.8c0.1,0.3,0.2,0.6,0.2,0.9
			c0,0.3,0,0.6-0.1,0.9c-0.1,0.3-0.2,0.6-0.3,0.9c-0.2,0.3-0.4,0.7-0.7,1.1c-0.3,0.4-0.7,0.9-1.3,1.4l-1.1,1.1h3.6c0,0,0.1,0,0.1,0
			c0,0,0.1,0.1,0.1,0.1c0,0.1,0,0.1,0.1,0.2C110.3,68.8,110.3,68.9,110.3,69z"/>
		<path id="XMLID_26_" class="st1" d="M117.7,65.2c0,0.7-0.1,1.4-0.2,2c-0.1,0.6-0.3,1.1-0.6,1.5c-0.3,0.4-0.6,0.7-1,0.9
			c-0.4,0.2-0.9,0.3-1.5,0.3c-0.6,0-1.1-0.1-1.5-0.3c-0.4-0.2-0.7-0.5-1-0.9c-0.2-0.4-0.4-0.9-0.5-1.5c-0.1-0.6-0.1-1.2-0.1-2
			c0-0.7,0.1-1.4,0.2-2c0.1-0.6,0.3-1.1,0.6-1.5c0.3-0.4,0.6-0.7,1-0.9c0.4-0.2,0.9-0.3,1.5-0.3c0.6,0,1.1,0.1,1.5,0.3
			c0.4,0.2,0.7,0.5,1,0.9c0.2,0.4,0.4,0.9,0.5,1.5C117.7,63.9,117.7,64.5,117.7,65.2z M115.9,65.3c0-0.4,0-0.8,0-1.1
			c0-0.3-0.1-0.6-0.1-0.9c0-0.2-0.1-0.4-0.2-0.6c-0.1-0.2-0.2-0.3-0.3-0.4c-0.1-0.1-0.2-0.2-0.3-0.2c-0.1,0-0.3-0.1-0.4-0.1
			c-0.3,0-0.5,0.1-0.7,0.2c-0.2,0.1-0.3,0.3-0.4,0.6c-0.1,0.3-0.2,0.6-0.2,1c0,0.4-0.1,0.9-0.1,1.4c0,0.6,0,1.2,0.1,1.6
			s0.1,0.8,0.2,1c0.1,0.2,0.3,0.4,0.4,0.5c0.2,0.1,0.4,0.2,0.6,0.2c0.2,0,0.3,0,0.5-0.1c0.1-0.1,0.3-0.1,0.4-0.3
			c0.1-0.1,0.2-0.3,0.3-0.4c0.1-0.2,0.1-0.4,0.2-0.6c0-0.2,0.1-0.5,0.1-0.8C115.9,66,115.9,65.7,115.9,65.3z"/>
		<path id="XMLID_37_" class="st1" d="M124.7,69.1c0,0.1,0,0.2,0,0.3c0,0.1,0,0.2-0.1,0.2c0,0.1-0.1,0.1-0.1,0.1c0,0-0.1,0-0.1,0h-5
			c0,0-0.1,0-0.1,0c0,0-0.1-0.1-0.1-0.1s0-0.1-0.1-0.2c0-0.1,0-0.2,0-0.3c0-0.1,0-0.2,0-0.3s0-0.2,0.1-0.2c0-0.1,0.1-0.1,0.1-0.1
			c0,0,0.1,0,0.1,0h1.7v-5.9l-1.5,0.8c-0.1,0.1-0.2,0.1-0.3,0.1c-0.1,0-0.1,0-0.2,0c0,0-0.1-0.1-0.1-0.2c0-0.1,0-0.2,0-0.4
			c0-0.1,0-0.2,0-0.3c0-0.1,0-0.1,0-0.2c0-0.1,0-0.1,0.1-0.1c0,0,0.1-0.1,0.1-0.1l1.9-1.3c0,0,0.1,0,0.1,0c0,0,0.1,0,0.1,0
			c0.1,0,0.1,0,0.2,0c0.1,0,0.2,0,0.4,0c0.2,0,0.3,0,0.4,0c0.1,0,0.2,0,0.2,0c0.1,0,0.1,0,0.1,0.1c0,0,0,0.1,0,0.1v7.5h1.5
			c0,0,0.1,0,0.1,0c0,0,0.1,0.1,0.1,0.1c0,0.1,0,0.1,0.1,0.2C124.7,68.8,124.7,69,124.7,69.1z"/>
		<path id="XMLID_39_" class="st1" d="M132,61.5c0,0.1,0,0.3,0,0.4c0,0.1,0,0.2,0,0.3c0,0.1,0,0.2-0.1,0.2c0,0.1-0.1,0.2-0.1,0.2
			l-3,6.9c0,0.1-0.1,0.1-0.1,0.1c0,0-0.1,0.1-0.2,0.1c-0.1,0-0.2,0-0.3,0c-0.1,0-0.3,0-0.5,0c-0.2,0-0.4,0-0.6,0s-0.3,0-0.3-0.1
			c-0.1,0-0.1-0.1-0.1-0.1c0-0.1,0-0.1,0-0.2l3.2-7.1h-3.8c-0.1,0-0.2-0.1-0.2-0.2c0-0.1-0.1-0.3-0.1-0.6c0-0.1,0-0.3,0-0.4
			c0-0.1,0-0.2,0.1-0.2c0-0.1,0.1-0.1,0.1-0.1c0,0,0.1,0,0.1,0h5.4c0.1,0,0.2,0,0.2,0c0.1,0,0.1,0.1,0.1,0.1c0,0.1,0.1,0.1,0.1,0.2
			C132,61.2,132,61.4,132,61.5z"/>
	</g>
	<g id="XMLID_40_">
		<polygon id="XMLID_47_" class="st0" points="181,49.9 166.1,24.2 140.9,24.2 140.9,28.4 163.7,28.4 176.1,49.9 163.7,71.4 
			140.9,71.4 140.9,75.6 166.1,75.6 		"/>
	</g>
	<g id="XMLID_4_">
		<polygon id="XMLID_45_" class="st0" points="158.4,71.4 170.1,49.9 155.5,71.4 152.4,72.9 168.6,43.4 150,71.4 145.6,74.2 
			166.2,37.8 143.2,71.4 140.9,75.6 157.1,75.6 		"/>
	</g>
</g>
</svg>
