<?xml version="1.0" encoding="utf-8"?>
<!-- Generator: Adobe Illustrator 21.1.0, SVG Export Plug-In . SVG Version: 6.00 Build 0)  -->
<svg version="1.1" id="Layer_1" xmlns="http://www.w3.org/2000/svg" xmlns:xlink="http://www.w3.org/1999/xlink" x="0px" y="0px"
	 viewBox="0 0 200 100" style="enable-background:new 0 0 200 100;" xml:space="preserve">
<style type="text/css">
	.st0{fill:#444445;}
	.st1{fill:#0078B9;}
</style>
<g id="XMLID_2_">
	<g id="XMLID_3_">
		<path id="XMLID_64_" class="st0" d="M54.1,33.4c0,0.1,0,0.1-0.1,0.2c0,0.1-0.1,0.1-0.2,0.1c-0.1,0-0.2,0.1-0.4,0.1s-0.4,0-0.6,0
			c-0.3,0-0.5,0-0.6,0s-0.3,0-0.4-0.1s-0.2-0.1-0.2-0.1c0-0.1-0.1-0.1-0.1-0.2V21.3c0-0.1,0-0.1,0.1-0.2c0-0.1,0.1-0.1,0.2-0.1
			s0.2-0.1,0.4-0.1s0.4,0,0.6,0c0.3,0,0.5,0,0.6,0s0.3,0,0.4,0.1c0.1,0,0.2,0.1,0.2,0.1c0,0.1,0.1,0.1,0.1,0.2V33.4z"/>
		<path id="XMLID_101_" class="st0" d="M75.6,32.8c0.1,0.2,0.1,0.4,0.1,0.6c0,0.1,0,0.2-0.1,0.3s-0.2,0.1-0.4,0.1s-0.4,0-0.8,0
			c-0.3,0-0.6,0-0.8,0c-0.2,0-0.3,0-0.4-0.1c-0.1,0-0.2-0.1-0.2-0.1c0-0.1-0.1-0.1-0.1-0.2l-0.9-2.6h-4.8l-0.8,2.5
			c0,0.1-0.1,0.2-0.1,0.2c0,0.1-0.1,0.1-0.2,0.1c-0.1,0-0.2,0.1-0.4,0.1c-0.2,0-0.4,0-0.7,0c-0.3,0-0.5,0-0.7,0S64,33.8,64,33.7
			c-0.1-0.1-0.1-0.2-0.1-0.3c0-0.1,0.1-0.3,0.1-0.6l4-11.4c0-0.1,0.1-0.2,0.1-0.3s0.1-0.1,0.3-0.2c0.1,0,0.3-0.1,0.5-0.1
			c0.2,0,0.5,0,0.8,0c0.4,0,0.7,0,0.9,0c0.2,0,0.4,0,0.5,0.1c0.1,0,0.2,0.1,0.3,0.2c0.1,0.1,0.1,0.2,0.1,0.3L75.6,32.8z M69.7,23.4
			L69.7,23.4l-1.8,5.5h3.7L69.7,23.4z"/>
		<path id="XMLID_104_" class="st0" d="M93.2,32.8c0,0.2,0,0.4,0,0.5c0,0.1,0,0.2-0.1,0.3c0,0.1-0.1,0.1-0.1,0.2s-0.1,0.1-0.2,0.1
			h-6.5c-0.2,0-0.4-0.1-0.6-0.2s-0.2-0.3-0.2-0.6V21.7c0-0.3,0.1-0.5,0.2-0.6c0.1-0.1,0.3-0.2,0.6-0.2h6.4c0.1,0,0.1,0,0.2,0.1
			s0.1,0.1,0.1,0.2s0.1,0.2,0.1,0.3c0,0.1,0,0.3,0,0.5c0,0.2,0,0.3,0,0.5c0,0.1,0,0.2-0.1,0.3c0,0.1-0.1,0.1-0.1,0.2
			S92.8,23,92.8,23h-4.6v3.1h3.9c0.1,0,0.1,0,0.2,0.1s0.1,0.1,0.1,0.2c0,0.1,0.1,0.2,0.1,0.3c0,0.1,0,0.3,0,0.5c0,0.2,0,0.4,0,0.5
			c0,0.1,0,0.2-0.1,0.3c0,0.1-0.1,0.1-0.1,0.2s-0.1,0-0.2,0h-3.9v3.6h4.6c0.1,0,0.1,0,0.2,0.1s0.1,0.1,0.1,0.2s0.1,0.2,0.1,0.3
			S93.2,32.6,93.2,32.8z"/>
		<path id="XMLID_106_" class="st0" d="M111.1,29.9c0,0.7-0.1,1.3-0.4,1.8c-0.3,0.5-0.6,0.9-1,1.3c-0.4,0.3-0.9,0.6-1.5,0.8
			c-0.6,0.2-1.2,0.3-1.9,0.3c-0.4,0-0.9,0-1.2-0.1c-0.4-0.1-0.7-0.2-1-0.3s-0.5-0.2-0.7-0.3s-0.3-0.2-0.4-0.3
			c-0.1-0.1-0.1-0.2-0.2-0.4c0-0.2-0.1-0.4-0.1-0.7c0-0.2,0-0.4,0-0.5c0-0.1,0-0.3,0.1-0.3c0-0.1,0.1-0.1,0.1-0.2
			c0,0,0.1-0.1,0.2-0.1c0.1,0,0.2,0.1,0.4,0.2c0.2,0.1,0.4,0.2,0.7,0.4c0.3,0.1,0.6,0.3,1,0.4c0.4,0.1,0.8,0.2,1.3,0.2
			c0.3,0,0.6,0,0.9-0.1c0.3-0.1,0.5-0.2,0.6-0.3c0.2-0.1,0.3-0.3,0.4-0.5c0.1-0.2,0.1-0.4,0.1-0.7c0-0.3-0.1-0.5-0.2-0.8
			c-0.2-0.2-0.4-0.4-0.6-0.6c-0.3-0.2-0.5-0.3-0.9-0.5c-0.3-0.1-0.7-0.3-1-0.5c-0.3-0.2-0.7-0.3-1-0.5s-0.6-0.4-0.9-0.7
			c-0.3-0.3-0.5-0.6-0.6-1c-0.2-0.4-0.2-0.8-0.2-1.4c0-0.6,0.1-1.2,0.3-1.6s0.5-0.9,0.9-1.2s0.8-0.5,1.4-0.7
			c0.5-0.2,1.1-0.2,1.7-0.2c0.3,0,0.6,0,0.9,0.1c0.3,0,0.6,0.1,0.9,0.2c0.3,0.1,0.5,0.2,0.7,0.3c0.2,0.1,0.3,0.2,0.4,0.2
			s0.1,0.1,0.1,0.2s0,0.1,0.1,0.2c0,0.1,0,0.2,0,0.3c0,0.1,0,0.3,0,0.4c0,0.2,0,0.4,0,0.5c0,0.1,0,0.2,0,0.3c0,0.1-0.1,0.1-0.1,0.2
			c0,0-0.1,0.1-0.2,0.1c-0.1,0-0.2,0-0.3-0.1c-0.2-0.1-0.4-0.2-0.6-0.3c-0.2-0.1-0.5-0.2-0.8-0.3c-0.3-0.1-0.6-0.1-1-0.1
			c-0.3,0-0.5,0-0.7,0.1c-0.2,0.1-0.4,0.2-0.5,0.3c-0.1,0.1-0.2,0.3-0.3,0.4c-0.1,0.2-0.1,0.4-0.1,0.5c0,0.3,0.1,0.5,0.2,0.7
			c0.2,0.2,0.4,0.4,0.6,0.6c0.3,0.2,0.6,0.3,0.9,0.5c0.3,0.1,0.7,0.3,1,0.5c0.3,0.2,0.7,0.3,1,0.5c0.3,0.2,0.6,0.4,0.9,0.7
			c0.3,0.3,0.5,0.6,0.6,1C111,29,111.1,29.4,111.1,29.9z"/>
		<path id="XMLID_108_" class="st0" d="M129.7,22c0,0.2,0,0.4,0,0.5s0,0.2-0.1,0.3c0,0.1-0.1,0.1-0.1,0.2c0,0-0.1,0.1-0.2,0.1h-3.2
			v10.4c0,0.1,0,0.1-0.1,0.2c0,0.1-0.1,0.1-0.2,0.1c-0.1,0-0.2,0.1-0.4,0.1s-0.4,0-0.6,0s-0.5,0-0.6,0s-0.3,0-0.4-0.1
			s-0.2-0.1-0.2-0.1c0-0.1-0.1-0.1-0.1-0.2V23.1h-3.2c-0.1,0-0.1,0-0.2-0.1c0,0-0.1-0.1-0.1-0.2s-0.1-0.2-0.1-0.3s0-0.3,0-0.5
			c0-0.2,0-0.4,0-0.5s0-0.3,0.1-0.3S120,21,120,21s0.1-0.1,0.2-0.1h9.1c0.1,0,0.1,0,0.2,0.1s0.1,0.1,0.1,0.2c0,0.1,0.1,0.2,0.1,0.3
			S129.7,21.8,129.7,22z"/>
		<path id="XMLID_110_" class="st0" d="M147,32.8c0,0.2,0,0.4,0,0.5c0,0.1,0,0.2-0.1,0.3c0,0.1-0.1,0.1-0.1,0.2s-0.1,0.1-0.2,0.1
			h-6.5c-0.2,0-0.4-0.1-0.6-0.2s-0.2-0.3-0.2-0.6V21.7c0-0.3,0.1-0.5,0.2-0.6c0.1-0.1,0.3-0.2,0.6-0.2h6.4c0.1,0,0.1,0,0.2,0.1
			s0.1,0.1,0.1,0.2s0.1,0.2,0.1,0.3c0,0.1,0,0.3,0,0.5c0,0.2,0,0.3,0,0.5c0,0.1,0,0.2-0.1,0.3c0,0.1-0.1,0.1-0.1,0.2
			s-0.1,0.1-0.2,0.1H142v3.1h3.9c0.1,0,0.1,0,0.2,0.1s0.1,0.1,0.1,0.2c0,0.1,0.1,0.2,0.1,0.3c0,0.1,0,0.3,0,0.5c0,0.2,0,0.4,0,0.5
			c0,0.1,0,0.2-0.1,0.3c0,0.1-0.1,0.1-0.1,0.2s-0.1,0-0.2,0H142v3.6h4.6c0.1,0,0.1,0,0.2,0.1s0.1,0.1,0.1,0.2s0.1,0.2,0.1,0.3
			S147,32.6,147,32.8z"/>
	</g>
	<g id="XMLID_61_">
		<rect id="XMLID_85_" x="77.8" y="39.3" class="st0" width="8" height="20"/>
		<polygon id="XMLID_78_" class="st0" points="129.2,59.3 149.2,39.3 137.8,39.3 117.8,59.3 137.8,79.3 149.2,79.3 		"/>
		<path id="XMLID_99_" class="st1" d="M97.8,39.3c-11,0-20,9-20,20c0,11,9,20,20,20s20-9,20-20C117.8,48.3,108.9,39.3,97.8,39.3z
			 M97.8,71.3c-6.6,0-12-5.4-12-12s5.4-12,12-12s12,5.4,12,12S104.5,71.3,97.8,71.3z"/>
		<path id="XMLID_98_" class="st1" d="M77.8,59.3v2.5c0,5.2-4.3,9.5-9.5,9.5s-9.5-4.3-9.5-9.5V39.3h-8v22.5
			c0,9.6,7.9,17.5,17.5,17.5s17.5-7.9,17.5-17.5v-2.5H77.8z"/>
		<g id="XMLID_66_">
			<rect id="XMLID_91_" x="117.8" y="39.3" class="st1" width="8" height="40"/>
		</g>
	</g>
</g>
</svg>
